<?xml version="1.0" encoding="UTF-8"?>
<!DOCTYPE svg PUBLIC "-//W3C//DTD SVG 1.1//EN" "http://www.w3.org/Graphics/SVG/1.1/DTD/svg11.dtd">
<!-- Creator: CorelDRAW 2020 (64-Bit) -->
<svg xmlns="http://www.w3.org/2000/svg" xml:space="preserve" width="215.9mm" height="279.4mm" version="1.1" style="shape-rendering:geometricPrecision; text-rendering:geometricPrecision; image-rendering:optimizeQuality; fill-rule:evenodd; clip-rule:evenodd"
viewBox="0 0 21590 27940"
 xmlns:xlink="http://www.w3.org/1999/xlink"
 xmlns:xodm="http://www.corel.com/coreldraw/odm/2003">
 <defs>
  <style type="text/css">
   <![CDATA[
    .str5 {stroke:#FBA338;stroke-width:70.56;stroke-miterlimit:10}
    .str0 {stroke:#28150F;stroke-width:26.46;stroke-linecap:round;stroke-linejoin:round;stroke-miterlimit:10}
    .str2 {stroke:#2F1A0F;stroke-width:26.46;stroke-linecap:round;stroke-linejoin:round;stroke-miterlimit:10}
    .str1 {stroke:#DB4242;stroke-width:26.46;stroke-linecap:round;stroke-linejoin:round;stroke-miterlimit:10}
    .str3 {stroke:#28150F;stroke-width:35.28;stroke-linecap:round;stroke-linejoin:round;stroke-miterlimit:10}
    .str4 {stroke:#2D1A0F;stroke-width:35.28;stroke-linecap:round;stroke-linejoin:round;stroke-miterlimit:10}
    .fil13 {fill:none;fill-rule:nonzero}
    .fil40 {fill:#180A08;fill-rule:nonzero}
    .fil9 {fill:#28150F;fill-rule:nonzero}
    .fil52 {fill:#2D1A0F;fill-rule:nonzero}
    .fil23 {fill:#2F1A0F;fill-rule:nonzero}
    .fil11 {fill:#333333;fill-rule:nonzero}
    .fil43 {fill:#3D313B;fill-rule:nonzero}
    .fil45 {fill:#3F3644;fill-rule:nonzero}
    .fil36 {fill:#44331C;fill-rule:nonzero}
    .fil6 {fill:#4B3F4B;fill-rule:nonzero}
    .fil44 {fill:#4F414D;fill-rule:nonzero}
    .fil10 {fill:#593A2D;fill-rule:nonzero}
    .fil22 {fill:#59442B;fill-rule:nonzero}
    .fil29 {fill:#5B422B;fill-rule:nonzero}
    .fil2 {fill:#5E505D;fill-rule:nonzero}
    .fil46 {fill:#5E5260;fill-rule:nonzero}
    .fil50 {fill:#60AC82;fill-rule:nonzero}
    .fil25 {fill:#705923;fill-rule:nonzero}
    .fil5 {fill:#776774;fill-rule:nonzero}
    .fil31 {fill:#7C6952;fill-rule:nonzero}
    .fil16 {fill:#837983;fill-rule:nonzero}
    .fil1 {fill:#83AF97;fill-rule:nonzero}
    .fil26 {fill:#896767;fill-rule:nonzero}
    .fil24 {fill:#907B31;fill-rule:nonzero}
    .fil4 {fill:#917934;fill-rule:nonzero}
    .fil37 {fill:#A39C4F;fill-rule:nonzero}
    .fil3 {fill:#A59546;fill-rule:nonzero}
    .fil27 {fill:#AF9590;fill-rule:nonzero}
    .fil0 {fill:#B5DDD4;fill-rule:nonzero}
    .fil58 {fill:#B89A4B;fill-rule:nonzero}
    .fil18 {fill:#BCAF8E;fill-rule:nonzero}
    .fil55 {fill:#BCB3A5;fill-rule:nonzero}
    .fil33 {fill:#CCB3AA;fill-rule:nonzero}
    .fil17 {fill:#CCB3AC;fill-rule:nonzero}
    .fil51 {fill:#CCE4D6;fill-rule:nonzero}
    .fil21 {fill:#D18048;fill-rule:nonzero}
    .fil60 {fill:#D1AC93;fill-rule:nonzero}
    .fil19 {fill:#D3CCA5;fill-rule:nonzero}
    .fil42 {fill:#D68049;fill-rule:nonzero}
    .fil61 {fill:#D84848;fill-rule:nonzero}
    .fil15 {fill:#D8C4BF;fill-rule:nonzero}
    .fil35 {fill:#DBC6BC;fill-rule:nonzero}
    .fil56 {fill:#DBD8CC;fill-rule:nonzero}
    .fil59 {fill:#DDCF83;fill-rule:nonzero}
    .fil28 {fill:#DF7026;fill-rule:nonzero}
    .fil54 {fill:#E4CDB6;fill-rule:nonzero}
    .fil20 {fill:#E6E6BD;fill-rule:nonzero}
    .fil38 {fill:#EF8324;fill-rule:nonzero}
    .fil49 {fill:#EFFBF6;fill-rule:nonzero}
    .fil53 {fill:#F2DFC3;fill-rule:nonzero}
    .fil57 {fill:#F2F0E6;fill-rule:nonzero}
    .fil7 {fill:#F47567;fill-rule:nonzero}
    .fil34 {fill:#F69326;fill-rule:nonzero}
    .fil39 {fill:#F69328;fill-rule:nonzero}
    .fil30 {fill:#F7932A;fill-rule:nonzero}
    .fil32 {fill:#F9AA4D;fill-rule:nonzero}
    .fil41 {fill:#FBA338;fill-rule:nonzero}
    .fil14 {fill:#FBA590;fill-rule:nonzero}
    .fil48 {fill:#FBD672;fill-rule:nonzero}
    .fil8 {fill:#FF907B;fill-rule:nonzero}
    .fil47 {fill:#FFE19E;fill-rule:nonzero}
    .fil12 {fill:white;fill-rule:nonzero}
   ]]>
  </style>
 </defs>
 <g id="Capa_x0020_1">
  <metadata id="CorelCorpID_0Corel-Layer"/>
  <g id="_2796928126144">
   <path class="fil0" d="M3808.63 9585.91c-74.29,36.75 -145.63,78.1 -213.06,123.73 -1011.28,684.36 -1542.07,1982.47 -1631.3,3163.57 -9.18,121.45 -12.91,243.32 -10.98,365.13 22.52,1419.85 869.96,2828.03 2170.38,3398.43 1300.41,570.4 2987.76,188.25 3821.83,-960.99 398.85,-549.56 591.97,-1300.98 308.45,-1917.98 -396.47,-862.76 -1448.13,-1126.87 -1938.29,-1912.02 -427,-683.97 -69.03,-1660.33 -767.11,-2200.9 -489.44,-378.99 -1210.16,-321.19 -1739.92,-58.97z"/>
   <path class="fil1" d="M8640.12 16419.52c0,139.82 -1338.38,253.17 -2989.34,253.17 -1650.94,0 -2989.32,-113.35 -2989.32,-253.17 0,-139.82 1338.38,-253.16 2989.32,-253.16 1650.96,0 2989.34,113.34 2989.34,253.16z"/>
   <polygon class="fil2" points="3846.54,16293.52 3734.42,16293.52 3734.42,14228.83 3480.35,13134.04 3592.47,13134.04 3846.54,14223.16 "/>
   <polygon class="fil2" points="4962.8,16238.95 4850.65,16238.95 4850.65,14209.91 4596.58,13134.04 4708.72,13134.04 4962.8,14204.35 "/>
   <polygon class="fil2" points="4708.72,16293.52 4596.58,16293.52 4596.58,14360.7 4708.72,14360.7 "/>
   <polygon class="fil2" points="6046.28,16293.52 5934.16,16293.52 5934.16,14360.7 6046.28,14360.7 "/>
   <path class="fil3" d="M4428.99 13429.56l-1001.07 0c-177.93,0 -357.13,-149.35 -399.95,-332.21l-240.09 -1025.37c-40.51,-173.06 65.69,-312.34 236.95,-312.34l963.57 0c171.28,0 347.86,139.28 394.77,312.34l277.95 1025.37c49.55,182.86 -54.2,332.21 -232.13,332.21z"/>
   <path class="fil4" d="M4445.28 13429.56l-934.39 0c-166.08,0 -333.36,-149.35 -373.32,-332.21l-224.1 -1025.37c-37.82,-173.06 61.32,-312.34 221.17,-312.34l899.39 0c159.85,0 324.69,139.28 368.48,312.34l259.42 1025.37c46.27,182.86 -50.58,332.21 -216.65,332.21z"/>
   <path class="fil3" d="M6206.08 14433.02l-2444.31 0c-79.08,0 -143.17,-64.11 -143.17,-143.17 0,-79.08 64.09,-143.18 143.17,-143.18l2444.31 0c79.08,0 143.16,64.1 143.16,143.18 0,79.06 -64.08,143.17 -143.16,143.17z"/>
   <path class="fil4" d="M6206.08 14433.02l-2243.78 0c-79.08,0 -143.17,-64.11 -143.17,-143.17 0,-79.08 64.09,-143.18 143.17,-143.18l2243.78 0c79.08,0 143.16,64.1 143.16,143.18 0,79.06 -64.08,143.17 -143.16,143.17z"/>
   <path class="fil2" d="M3925.71 11114.47c0,0 -457.14,-224.06 -509.72,236.92 -36.41,319.11 105.97,1540.01 314.2,1599.28 208.22,59.27 312.26,-512.46 312.26,-512.46l-116.74 -1323.74z"/>
   <path class="fil5" d="M4086.35 12300.03c0,0 -419.66,-213.8 -606,146.15 -14.62,136.94 46.73,321.48 146.42,387.95 0,0 313.8,-173.93 437.11,-173.93l22.47 -360.17z"/>
   <path class="fil6" d="M4911.6 11511.01l41.56 -357.93c0,0 170.78,-64.62 295.42,36.94 124.63,101.54 493.92,1046.98 493.92,1046.98l-438.45 434.79 -392.45 -1160.78z"/>
   <path class="fil5" d="M5140.41 12535.55c-2.62,-16.12 195.87,-560.81 675.95,-463.87 480.07,96.95 300.05,335.61 300.05,335.61l-789.36 426.84 -186.64 -298.58z"/>
   <path class="fil2" d="M4129.62 11141.46c0,0 -351.54,-80.68 -524.42,28.81 -77.78,49.27 131.18,480.11 243.71,963.78 137.51,591.1 194.18,1250.06 194.18,1250.06l1457.91 -219.94c0,0 -322.03,-1193.99 -333.82,-1627.6 -11.81,-433.61 -112.86,-411.51 -390.22,-345.86 -277.36,65.63 -647.34,-49.25 -647.34,-49.25z"/>
   <path class="fil7" d="M4102.95 11112.83c0,0 227.91,607.69 481.7,545.29 253.78,-62.41 281.84,-617.96 281.84,-617.96l-763.54 72.67z"/>
   <path class="fil7" d="M5218.86 10738.56c36.31,69.29 -20.18,170.47 -126.16,225.98 -105.97,55.5 -221.3,44.33 -257.6,-24.96 -36.28,-69.29 20.2,-170.47 126.16,-225.98 105.99,-55.51 221.31,-44.34 257.6,24.96z"/>
   <path class="fil8" d="M5035.41 10770.96c24.52,392.62 -173.99,720.06 -479.92,739.17 -305.95,19.11 -603.48,-277.35 -627.99,-669.96 -24.53,-392.62 206.73,-697.85 509.56,-745.5 600.38,-94.46 573.82,283.68 598.35,676.29z"/>
   <path class="fil9" d="M5158.78 10428.4c-43.15,37.52 -76.93,63.79 -76.93,63.79l-44.56 336.3c-15,-154.78 -30.01,-306.75 -66.14,-377.57 0,0 -749.5,43.62 -813.29,49.24 0,0 -32.38,265.02 -120.08,390.25l-145.87 0c0,0 -136.02,-398.22 -105.07,-600.37 30.97,-202.17 150.56,-421.2 208.72,-397.29 58.64,23.93 30.96,160.88 30.96,160.88 0,0 77.86,-65.18 185.27,-146.81 0.48,0 0.94,-0.46 0.94,-0.46 198.42,-150.09 496.25,-356.01 586.3,-311.45 134.14,66.14 -8.91,270.16 -18.29,283.77 19.24,-7.03 422.59,-158.54 486.38,-54.4 64.73,106 -212.47,370.06 -212.47,370.06 0,0 253.29,-58.15 284.24,6.58 20.16,42.68 -97.09,155.24 -180.11,227.48z"/>
   <path class="fil10" d="M5158.78 10428.4c28.13,-55.34 54.4,-120.55 45.97,-157.13 -15.96,-72.7 -292.69,15.96 -292.69,15.96 0,0 276.73,-311.92 233.58,-386.97 -42.68,-75.51 -489.19,91.46 -489.19,91.46 0,0 105.06,-209.67 24.39,-258.43 -52.07,-31.43 -300.18,86.76 -468.11,173.07 198.42,-150.09 496.25,-356.01 586.3,-311.45 134.14,66.14 -8.91,270.16 -18.29,283.77 19.24,-7.03 422.59,-158.54 486.38,-54.4 64.73,106 -212.47,370.06 -212.47,370.06 0,0 253.29,-58.15 284.24,6.58 20.16,42.68 -97.09,155.24 -180.11,227.48z"/>
   <path class="fil8" d="M4098.58 10971.61c-23.5,74.62 -135.05,105.97 -249.15,70.04 -114.12,-35.93 -187.58,-125.53 -164.08,-200.14 23.49,-74.62 135.05,-105.97 249.14,-70.04 114.12,35.93 187.57,125.54 164.09,200.14z"/>
   <path class="fil11" d="M4403.43 11040.16c0,28.86 -9.94,52.27 -22.19,52.27 -12.24,0 -22.16,-23.41 -22.16,-52.27 0,-28.86 9.92,-52.26 22.16,-52.26 12.25,0 22.19,23.4 22.19,52.26z"/>
   <path class="fil11" d="M4888.67 10999.83c0,28.85 -9.92,52.26 -22.18,52.26 -12.25,0 -22.17,-23.41 -22.17,-52.26 0,-28.86 9.92,-52.26 22.17,-52.26 12.26,0 22.18,23.4 22.18,52.26z"/>
   <path class="fil12" d="M4721.1 11242.98c0,0 -203.43,45.55 -317.69,-56.56 0,0 -20.19,123.36 116.58,147.41 137.09,24.12 201.11,-90.85 201.11,-90.85z"/>
   <path class="fil13 str0" d="M4816.03 10724.73c44.65,-26.76 107.4,-18.13 143.2,19.67"/>
   <path class="fil13 str0" d="M4425.43 10752.02c-55.57,-25.85 -127.3,-11.02 -168.07,34.73"/>
   <path class="fil13 str1" d="M4725.05 11008.59c12.72,59.73 14.16,86.5 5.77,146.99"/>
   <path class="fil14" d="M4052.92 11599.89c-5.93,-14.41 -129.97,-221.09 -142.88,-414.11 -12.91,-193.02 50.65,-366.51 100.09,-344.88 49.44,21.62 -1.11,301.8 -1.11,301.8 0,0 48.32,-304.49 112.9,-284.77 64.59,19.73 -14.04,364.92 -14.04,364.92 0,0 69.57,-253.93 116.9,-244.47 47.32,9.46 -25.96,355.25 -25.96,355.25 0,0 30.64,-213.85 90.34,-209.48 59.7,4.36 -19.77,270.54 -19.77,270.54 0,0 150.29,149.8 61.76,331.83l-278.23 -126.63z"/>
   <path class="fil14" d="M4052.92 11599.89c0,0 -466.06,1004.12 -432.61,1207.82 18.55,112.92 134.93,172.26 231.31,176.72 96.37,4.46 230.05,-41.54 289.67,-315.08 73.31,-336.22 189.86,-942.83 189.86,-942.83l-278.23 -126.63z"/>
   <polygon class="fil15" points="6205.2,14063.46 4893.82,14146.67 5956.03,13483.4 "/>
   <path class="fil8" d="M7483.42 14604.81c3.37,29.67 281.12,398.89 281.12,398.89l-303.46 239.8 -281.19 -341.22 303.53 -297.47z"/>
   <path class="fil2" d="M7598.64 15555.31c-15.04,-5.06 -29.35,-16.17 -42.39,-31.52 -74.16,-85.95 -113.04,-302.02 -113.04,-302.02l294.06 -254.95c0,0 379.92,-144.52 540.67,-133.87 22.22,1.1 40.09,5.84 52.62,14.04 99.71,67.61 -630.27,742.76 -731.92,708.32z"/>
   <path class="fil16" d="M7598.64 15555.31c-15.04,-5.06 -29.35,-16.17 -42.39,-31.52 127.13,-87.1 511.34,-366.26 721.69,-690.84 22.22,1.1 40.09,5.84 52.62,14.04 99.71,67.61 -630.27,742.76 -731.92,708.32z"/>
   <path class="fil16" d="M7780.92 15118.56c-0.17,0.06 -0.4,0.12 -0.61,0.18 -12.18,3.07 -24.63,-4.06 -28.2,-16.13l-2.75 -9.37c-0.94,-3.17 -1.15,-6.34 -0.78,-9.43 -7.21,-46.12 -5.25,-93.94 5.88,-139.27 3.08,-12.66 15.91,-20.33 28.33,-17.2 12.61,3.05 20.3,15.8 17.19,28.35 -10.81,44.2 -11.63,91.04 -2.41,135.51 2.53,12.12 -4.78,24.06 -16.65,27.36z"/>
   <path class="fil16" d="M7876.34 15081.52c-12.31,3.45 -25.12,-3.6 -28.78,-15.89 -0.03,-0.09 -0.06,-0.22 -0.09,-0.31 -14.13,-49.26 -13.29,-103.34 2.46,-152.19 3.91,-12.36 17.1,-19.19 29.49,-15.13 12.34,3.97 19.11,17.16 15.14,29.49 -12.92,40.13 -13.61,84.5 -1.98,124.96 3.56,12.42 -3.58,25.35 -15.97,29.01 -0.09,0.01 -0.18,0.04 -0.27,0.06z"/>
   <path class="fil16" d="M7961.34 15042.73c-1.32,0.36 -2.68,0.64 -4.08,0.74 -12.86,1.27 -24.33,-8.13 -25.61,-21.04 -4.29,-43.55 -1.9,-87.4 7.13,-130.39 2.63,-12.72 15.17,-20.93 27.75,-18.12 12.67,2.65 20.81,15.07 18.12,27.77 -8.01,38.27 -10.13,77.34 -6.34,116.17 1.17,11.48 -6.22,21.86 -16.97,24.87z"/>
   <path class="fil17" d="M4043.09 13384.11c0,0 148.8,949.63 808.17,774.19 659.39,-175.43 1574.1,-610.86 1574.1,-610.86l850.64 1707.05 449.02 -425.98c0,0 -779.93,-1843.8 -1056.32,-1921.95 -397.58,-112.41 -1167.7,257.61 -1167.7,257.61l-1457.91 219.94z"/>
   <path class="fil8" d="M7181.36 15327.13c-4.71,29.46 163.54,459.78 163.54,459.78l-356.75 149.36 -179.1 -404.24 372.31 -204.9z"/>
   <path class="fil2" d="M7036.81 16273.57c-13.13,-8.9 -23.91,-23.43 -32.36,-41.74 -48.31,-102.72 -27.68,-321.29 -27.68,-321.29l351.79 -166.51c0,0 404.78,-37.05 556.75,16.42 21.1,7.03 37.05,16.42 46.91,27.68 77.86,91.92 -806.76,545.96 -895.41,485.44z"/>
   <path class="fil16" d="M7036.81 16273.57c-13.13,-8.9 -23.91,-23.43 -32.36,-41.74 145.87,-49.71 590.99,-215.29 880.86,-471.38 21.1,7.03 37.05,16.42 46.91,27.68 77.86,91.92 -806.76,545.96 -895.41,485.44z"/>
   <path class="fil16" d="M7329.79 15901.95c-0.17,0 -0.41,0 -0.64,0 -12.55,-0.33 -22.62,-10.55 -22.81,-23.15l-0.12 -9.75c-0.06,-3.3 0.58,-6.41 1.79,-9.3 5.44,-46.36 20.18,-91.88 43.08,-132.56 6.38,-11.35 20.81,-15.3 31.93,-8.94 11.32,6.34 15.31,20.66 8.94,31.93 -22.31,39.67 -35.69,84.57 -38.76,129.86 -0.81,12.37 -11.08,21.91 -23.41,21.91z"/>
   <path class="fil16" d="M7431.67 15891.91c-12.77,0 -23.21,-10.22 -23.45,-23.04 0,-0.09 0,-0.24 0,-0.33 -0.36,-51.25 14.98,-103.1 43.28,-145.93 7.11,-10.86 21.62,-13.88 32.48,-6.63 10.8,7.14 13.79,21.65 6.63,32.46 -23.21,35.19 -35.81,77.73 -35.5,119.83 0.11,12.91 -10.24,23.46 -23.15,23.64 -0.11,0 -0.2,0 -0.29,0z"/>
   <path class="fil16" d="M7523.97 15877.39c-1.38,0 -2.75,-0.09 -4.12,-0.37 -12.74,-2.25 -21.26,-14.38 -19.02,-27.16 7.57,-43.11 21.67,-84.7 41.93,-123.67 5.95,-11.55 20.24,-16.09 31.59,-9.99 11.49,5.95 15.99,20.11 9.99,31.6 -18.01,34.73 -30.56,71.78 -37.33,110.21 -1.98,11.35 -11.87,19.38 -23.04,19.38z"/>
   <path class="fil15" d="M5759.28 13839.47l226.92 225.43 862.96 1815.44 495.74 -233.79c0,0 -595.28,-2235.98 -958.39,-2161.22 -363.1,74.75 -627.23,354.14 -627.23,354.14z"/>
   <polygon class="fil18" points="6770.2,12984.71 4288.57,12984.71 4288.57,12909.5 6770.2,12909.5 "/>
   <polygon class="fil19" points="5244.29,12984.71 4288.57,12984.71 4288.57,12909.5 5244.29,12909.5 "/>
   <path class="fil18" d="M5179.26 12947.81c0,10.73 -8.71,19.43 -19.43,19.43 -10.72,0 -19.42,-8.7 -19.42,-19.43 0,-10.72 8.7,-19.42 19.42,-19.42 10.72,0 19.43,8.7 19.43,19.42z"/>
   <polygon class="fil18" points="5098.81,12961.54 4955.66,12961.54 4955.66,12937.19 5098.81,12937.19 "/>
   <polygon class="fil18" points="4851.26,12959.28 4708.11,12959.28 4708.11,12934.93 4851.26,12934.93 "/>
   <polygon class="fil18" points="4495.27,12959.28 4352.1,12959.28 4352.1,12934.93 4495.27,12934.93 "/>
   <polygon class="fil20" points="6906.9,12921.64 5227.71,12919.64 5595.35,11725.94 7277.81,11725.01 "/>
   <polygon class="fil19" points="6906.9,12921.64 5273.04,12919.7 5628.79,11764.84 7265.72,11764.04 "/>
   <path class="fil6" d="M5227.71 16413.77c-33.43,0 -60.53,-27.12 -60.53,-60.54l0 -3205.78c0,-33.43 27.1,-60.53 60.53,-60.53 33.44,0 60.55,27.1 60.55,60.53l0 3205.78c0,33.42 -27.11,60.54 -60.55,60.54z"/>
   <path class="fil6" d="M3419.8 16413.77c-33.44,0 -60.55,-27.12 -60.55,-60.54l0 -3205.78c0,-33.43 27.11,-60.53 60.55,-60.53 33.43,0 60.55,27.1 60.55,60.53l0 3205.78c0,33.42 -27.12,60.54 -60.55,60.54z"/>
   <path class="fil6" d="M7574.41 16413.77c-33.44,0 -60.53,-27.12 -60.53,-60.54l0 -3205.78c0,-33.43 27.09,-60.53 60.53,-60.53 33.43,0 60.53,27.1 60.53,60.53l0 3205.78c0,33.42 -27.1,60.54 -60.53,60.54z"/>
   <polygon class="fil21" points="7772.5,13189.41 3093.65,13189.41 3093.65,12984.43 7772.5,12984.43 "/>
   <path class="fil0" d="M19372.57 13884.27c-149.6,-243.95 -360.68,-445.24 -615.63,-596.46 -774.81,-459.6 -1814.41,-495.76 -2585.21,-7.75 -716.26,453.47 -1180.79,1269.23 -1963.23,1595.53 -375.09,156.41 -811.82,194.24 -1121.46,457.49 -457.89,389.28 -444.38,1114.49 -218.87,1671.57 445.44,1100.43 1577.54,1866.15 2762.05,1945.4 1184.51,79.24 2375.46,-496.77 3111.94,-1427.87 663.37,-838.68 1104.05,-2141.02 816.74,-3204.71 -42.18,-156.17 -105.23,-300.95 -186.33,-433.2z"/>
   <path class="fil1" d="M18752.85 18884.07c0,150.5 -1352.15,272.49 -3020.12,272.49 -1667.98,0 -3020.14,-121.99 -3020.14,-272.49 0,-150.5 1352.16,-272.48 3020.14,-272.48 1667.97,0 3020.12,121.98 3020.12,272.48z"/>
   <path class="fil22" d="M17872.33 18816.44c0,102.15 -573.52,185.05 -1281.01,185.05 -707.5,0 -1281.03,-82.9 -1281.03,-185.05 0,-10.3 6.28,-22.39 17.93,-34.5 96.34,-102.61 567.25,-258.98 1147.05,-279.15 18.81,-0.45 37.64,-0.89 56.46,-1.34 21.95,-0.44 43.9,-0.44 65.85,-0.44 21.96,0 43.92,0 65.87,0.44 605.34,11.2 1095.08,174.74 1190.96,280.49 12.11,12.55 17.92,24.2 17.92,34.5z"/>
   <path class="fil23" d="M17854.41 18781.94c-102.14,70.79 -628.63,125.01 -1263.09,125.01 -634.46,0 -1160.94,-54.22 -1263.1,-125.01 96.34,-102.61 567.25,-258.98 1147.05,-279.15 18.81,-0.45 37.64,-0.89 56.46,-1.34 21.95,-0.44 43.9,-0.44 65.85,-0.44 21.96,0 43.92,0 65.87,0.44 605.34,11.2 1095.08,174.74 1190.96,280.49z"/>
   <polygon class="fil23" points="16870.68,18603.09 16311.96,18603.09 16311.96,17626.57 16870.68,17626.57 "/>
   <path class="fil24" d="M18148.46 14060.3c98.68,18.41 1130.15,181.56 914.37,1644.72 -195.86,1328.29 -1434.44,2183.78 -2850.2,2215.72 -1689.96,38.14 -2421.24,-981.99 -2034.11,-1826.93 387.12,-844.93 1626.43,-630.95 1879.76,-995.87 253.34,-364.91 540.91,-1326.8 2090.18,-1037.64z"/>
   <path class="fil25" d="M17346.49 14215.92c0,0 1243.62,-187.91 1345.8,498.49 102.18,686.4 -305,1713.56 -903.14,1838.73 -598.16,125.17 -665.31,410.06 -827.7,677.13 -162.4,267.06 -1115,933.43 -2139.31,255.32 -1024.3,-678.11 -468.11,-1853.93 237.9,-1893.7 895.69,-50.43 1247.57,-535.61 2286.45,-1375.97z"/>
   <path class="fil26" d="M16122.81 15100.39c0,0 -319.2,-306.78 -75.21,-645.42l395.68 149.26 -320.47 496.16z"/>
   <path class="fil8" d="M17304.43 13961.22l-59.15 636.69c0,0 -417.15,136.21 -819.06,255.84 -111.12,33.62 -221.35,65.43 -320.82,92.75 -27.34,7.63 -54.22,14.8 -79.75,21.97 -129.95,34.49 -234.8,58.69 -289.46,63.61 -245.99,22.41 -258.09,-1100 -258.09,-1100l271.54 86.03c0,0 47.5,443.6 145.62,474.95 20.61,6.72 76.18,-8.96 152.34,-38.09 69.46,-25.98 155.48,-63.61 248.67,-105.73 296.18,-133.53 661.35,-314.99 763.96,-341.44 170.27,-43.46 244.2,-46.58 244.2,-46.58z"/>
   <path class="fil7" d="M16426.22 14853.75c-111.12,33.62 -221.35,65.43 -320.82,92.75 -27.34,7.63 -54.22,14.8 -79.75,21.97 57.79,-215.97 21.95,-513.5 21.95,-513.5 69.46,-25.98 155.48,-63.61 248.67,-105.73 87.83,63.62 180.13,128.59 191.33,133.06 11.66,4.5 -25.54,198.05 -61.38,371.45z"/>
   <path class="fil27" d="M17304.43 13961.22l-59.15 636.69c0,0 -662.75,375.67 -1122.47,502.48 101.03,-192.57 31.7,-526.13 -75.21,-645.42 289.01,-109.76 877.77,-412.66 1012.63,-447.17 170.27,-43.46 244.2,-46.58 244.2,-46.58z"/>
   <path class="fil28" d="M16207.11 15468.51c0,0 -774.56,-613.69 -1058.63,-592.15 -302.13,22.92 -417.87,248.05 -357.31,460.05 60.58,211.99 295.29,605.69 295.29,605.69l1356.82 333.16 0 -636.29 -236.17 -170.46z"/>
   <path class="fil23" d="M14680.55 18964.77c-1.34,57.35 -9.86,102.15 -32.26,113.36 -73.49,37.63 -1196.34,-223.15 -1241.59,-327.99 -11.2,-26.43 18.37,-54.21 72.58,-81.1 161.76,-80.66 542.16,-154.13 698.98,-156.82 209.26,-3.58 470.03,117.84 470.03,117.84 0,0 36.29,201.18 32.26,334.71z"/>
   <path class="fil29" d="M14680.55 18964.77c-1.34,57.35 -9.86,102.15 -32.26,113.36 -73.49,37.63 -1196.34,-223.15 -1241.59,-327.99 -11.2,-26.43 18.37,-54.21 72.58,-81.1 185.96,116.5 569.5,290.79 1201.27,295.73z"/>
   <path class="fil8" d="M14822.14 18101.79c0,13.89 -37.65,129.04 -77.97,248.67 -46.15,137.12 -95.88,279.6 -95.88,279.6 -194.02,-10.31 -355.31,-45.71 -470.03,-117.84l57.81 -200.74 118.29 -413.57 467.78 203.88z"/>
   <path class="fil7" d="M14822.14 18101.79c0,13.89 -37.65,129.04 -77.97,248.67 -144.28,19.26 -366.51,32.26 -508.1,-38.98l118.29 -413.57 467.78 203.88z"/>
   <path class="fil30" d="M17451.85 16366.87c0,0 -458.31,673.65 -816.83,576.67 -358.54,-96.99 -1181.9,-289.65 -1227.01,-283.55 -45.11,6.09 -559.67,1653.71 -559.67,1653.71 -275.4,3.54 -525.65,-19.47 -702.46,-120.07 0,0 517.71,-2339.62 765.85,-2463.7 248.14,-124.06 1221.4,130.33 1221.4,130.33 0,0 -77.33,-190.08 73.98,-391.75 151.32,-201.68 1244.74,898.36 1244.74,898.36z"/>
   <path class="fil28" d="M15643.43 17052.3c0,0 534.26,240.35 758.1,-195.49l-411.09 -348.53 -416.2 284.71 69.19 259.31z"/>
   <path class="fil8" d="M16401.57 16969.97c-127.25,146.97 -254.5,252.25 -382.2,298.42l-172.05 -236.58 -203.87 -280.04 448.05 -243.31c14.34,10.75 120.98,171.62 205.22,300.21 57.81,88.27 104.85,161.3 104.85,161.3z"/>
   <path class="fil7" d="M16296.72 16808.67c-80.64,-12.55 -346.34,-32.71 -449.4,223.14l-203.87 -280.04 448.05 -243.31c14.34,10.75 120.98,171.62 205.22,300.21z"/>
   <path class="fil23" d="M16580.35 17370.09c-323.5,262.13 -1038.62,255.86 -1121.51,177.43 -15.23,-14.78 -15.69,-38.52 -4.47,-68.1 0.44,0 0.44,0 0.44,0 48.85,-129.94 314.1,-372.34 469.57,-442.69 190.43,-86.02 478.53,-78.41 478.53,-78.41 0,0 70.8,104.85 125.02,209.71 12.54,23.29 23.74,46.59 33.6,68.99 27.34,62.28 40.78,115.15 18.82,133.07z"/>
   <path class="fil29" d="M16580.35 17370.09c-323.5,262.13 -1038.62,255.86 -1121.51,177.43 -15.23,-14.78 -15.69,-38.52 -4.47,-68.1 0.44,0 0.44,0 0.44,0 239.26,-122.31 760.81,-362.48 1073.12,-311.39 12.54,23.29 23.74,46.59 33.6,68.99 27.34,62.28 40.78,115.15 18.82,133.07z"/>
   <path class="fil31" d="M16561.53 17237.02c27.34,62.28 40.78,115.15 18.82,133.07 -323.5,262.13 -1038.62,255.86 -1121.51,177.43 0,0 759.92,-371.43 1102.69,-310.5z"/>
   <path class="fil32" d="M14782.14 15109.92c-35.14,104.23 -49.97,292.03 -16.06,396.68 37.57,115.98 127.3,247.64 258.15,495.22 271.32,513.38 619.2,1050.48 619.2,1050.48 217.89,-323.3 488.56,-390.98 758.1,-195.49 0,0 -705.7,-1407.15 -849.06,-1654.14 -143.36,-247.01 -351,-331.04 -430.09,-326.1 -79.1,4.95 -173.23,22.4 -256.49,112.17 -53.08,57.25 -70.32,81.38 -83.75,121.18z"/>
   <path class="fil8" d="M18490.9 14832.69c-64.97,150.12 -1039.05,1534.18 -1039.05,1534.18l-1244.74 -898.36c0,0 696.75,-916.3 853.12,-1224.57 156.38,-308.27 218.22,-291.69 286.3,-275.11 48.85,11.65 176.55,60.03 259.89,72.58 32.71,4.93 58.24,4.48 69.44,-5.83 0.45,0 0.91,-0.44 1.36,-0.89 38.53,-38.09 136.2,-259.43 136.2,-259.43l353.08 -301.1 189.08 161.3c0,0 -41.66,83.35 -83.33,176.99 -47.04,105.74 -94.1,224.93 -81.1,251.36 3.58,7.17 13,17.92 25.98,30.92 75.73,74.38 283.18,228.52 322.61,313.64 46.16,99.92 16.14,274.67 -48.84,424.32z"/>
   <path class="fil7" d="M18355.58 13635.46c0,0 -41.66,83.35 -83.33,176.99 -138,118.3 -399.68,305.13 -596.39,223.13 0.45,0 0.91,-0.44 1.36,-0.89 38.53,-38.09 136.2,-259.43 136.2,-259.43l353.08 -301.1 189.08 161.3z"/>
   <path class="fil33" d="M18490.9 14832.69c-64.97,150.12 -1039.05,1534.18 -1039.05,1534.18l-1244.74 -898.36c0,0 696.75,-916.3 853.12,-1224.57 156.38,-308.27 218.22,-291.69 286.3,-275.11 48.85,11.65 176.55,60.03 259.89,72.58 -75.71,90.18 -115.65,269.92 -40.51,295.13 160.83,53.95 449.81,-75.75 651.22,-241.81 75.73,74.38 283.18,228.52 322.61,313.64 46.16,99.92 16.14,274.67 -48.84,424.32z"/>
   <polygon class="fil34" points="16843.79,14022.51 16797.22,14041.46 15732.73,13927.4 15790.42,13388.85 15842.61,13336.2 16905.12,13450.04 "/>
   <polygon class="fil28" points="16797.22,14041.46 15732.73,13927.4 15790.42,13388.85 16854.91,13502.9 "/>
   <path class="fil27" d="M17515.18 15587c-104.17,49.85 -454.55,-285.53 -136.82,-773.57l374.4 218.99 -237.58 554.58z"/>
   <path class="fil8" d="M18078.23 15229.69c-78.85,38.99 -187.74,89.61 -309.16,139.79 -87.38,36.74 -181.46,73.04 -275.56,105.29 -32.26,11.2 -64.52,21.97 -96.33,31.83 -170.27,53.32 -334.26,88.25 -452.55,78.85 -294.83,-22.86 5.83,-1402 5.83,-1402l292.57 -93.64 3.14 781.87c0,0 52.88,-22.85 132.19,-58.25 60.49,-27.33 136.21,-61.84 215.06,-99.02 147.87,-69.46 307.38,-149.2 399.68,-208.8 206.56,-132.62 362.48,-114.25 362.48,-114.25 436.42,115.59 22.86,690.47 -277.35,838.33z"/>
   <path class="fil7" d="M17828.21 14734.12l-59.14 635.36c-87.38,36.74 -181.46,73.04 -275.56,105.29 -32.26,11.2 -64.52,21.97 -96.33,31.83 139.34,-270.64 -18.82,-693.17 -18.82,-693.17 60.49,-27.33 136.21,-61.84 215.06,-99.02l234.79 19.71z"/>
   <path class="fil35" d="M18107.4 15302.18c-165.54,118.47 -367.29,207.75 -592.22,284.82 108.75,-359.15 -42.23,-672.71 -136.82,-773.57 173.84,-77.96 473.15,-216.41 614.74,-307.82 206.56,-132.62 362.48,-114.25 362.48,-114.25 436.42,115.59 23.98,716.11 -248.18,910.82z"/>
   <path class="fil8" d="M17243.03 14089.81c0,0 -111.56,195.8 -107.97,211.03 0,0 -114.72,-57.35 -184.6,-117.39 -70.35,-60.04 -73.94,-250.01 -73.94,-250.01 0,0 -54.65,-26 -77.96,-26 -23.29,0 -137.11,49.29 -158.62,27.78 -14.78,-14.78 2.69,-35.84 14.78,-47.04 3.14,-2.69 5.83,-4.94 7.63,-6.72 -4.04,2.23 -15.24,7.17 -27.33,5.37 -8.96,-0.45 -18.37,-4.93 -25.55,-15.68 -21.49,-30.92 85.59,-129.05 122.33,-138.01 36.73,-9.4 181.01,0 181.01,0 0,0 -94.99,-61.38 -129.03,-70.34 -33.62,-9.4 -201.19,14.33 -198.96,-27.34 2.25,-38.97 161.31,-62.72 214.65,-79.3 47.04,-14.79 161.29,44.36 189.08,59.13 -42.59,-25.98 -287.21,-175.19 -242.42,-210.12 49.74,-38.11 346.81,91.39 409.99,150.99 63.18,59.13 86.91,533.65 86.91,533.65z"/>
   <path class="fil7" d="M16903.86 13835.31c-95.44,-41.23 -174.3,1.33 -249.14,52.87 3.14,-2.69 5.83,-4.94 7.63,-6.72 -4.04,2.23 -15.24,7.17 -27.33,5.37 70.33,-72.58 179.23,-100.81 275.56,-67.2 11.65,4.48 4.48,20.6 -6.72,15.68z"/>
   <path class="fil8" d="M16044.46 13505.53c-18.81,47.49 -163.54,-2.69 -193.55,4.03 -30.03,6.72 -135.33,47.04 -135.33,47.04 0,0 300.65,20.62 287.21,81.55 -3.59,17.48 -11.2,28.68 -19.71,35.85 -13,10.3 -28.67,11.19 -38.98,10.3 5.37,1.8 11.65,4.92 15.23,10.76 3.58,4.93 5.37,12.55 3.58,22.85 -6.72,34.94 -160.4,53.32 -160.4,53.32 0,0 34.94,76.17 -20.61,200.73 -56.91,127.25 -210.14,71.68 -210.14,71.68l-93.66 -111.56c0,0 -5.36,-432.83 45.26,-493.33 50.18,-60.47 332.02,-167.56 392.07,-146.51 58.24,20.17 -200.3,138.02 -217.77,146.07 11.66,-2.68 117.83,-28.66 174.75,-21.96 60.49,7.19 181.91,64.54 172.05,89.18z"/>
   <path class="fil7" d="M15944.1 13684.3c5.37,1.8 11.65,4.92 15.23,10.76 -30.03,-8.96 -60.04,-17.03 -91.85,-21.96 -53.32,-8.06 -106.64,-7.17 -159.96,-11.64 -3.59,-0.45 -4.93,-5.39 -0.89,-6.74 84.68,-21.95 189.98,-12.09 276.45,19.28 -13,10.3 -28.67,11.19 -38.98,10.3z"/>
   <path class="fil23" d="M18789.32 13341.97c0,0 90.95,301.12 -241.97,240.17l-1179.74 -251.81c0,0 -440.01,-80.66 -197.62,-318.58 0,0 -35.82,-30.9 -69.44,-75.72 -65.85,-87.82 -124.11,-228.52 107.99,-295.73 0,0 -108.88,-306.45 266.15,-271.95 0,0 51.54,-354.86 373.24,-123.22 0,0 187.74,-276.9 351.28,-6.72 0,0 202.52,-114.72 303.35,30.92 25.09,35.84 43.92,87.36 51.96,160.4 0,0 334.72,-42.56 202.09,286.31 0,0 280.94,88.71 70.8,319.02 0,0 211.48,158.62 -38.09,306.91z"/>
   <path class="fil36" d="M18502.56 12269.33c-156.82,-72.15 -319.93,19.26 -319.93,19.26 -190.42,-192.66 -329.78,23.75 -329.78,23.75 -244.63,-189.52 -344.56,121.87 -344.56,121.87 -320.82,3.14 -221.8,263.9 -221.8,263.9 -160.4,46.15 -187.28,157.72 -185.94,237.92 -65.85,-87.82 -124.11,-228.52 107.99,-295.73 0,0 -108.88,-306.45 266.15,-271.95 0,0 51.54,-354.86 373.24,-123.22 0,0 187.74,-276.9 351.28,-6.72 0,0 202.52,-114.72 303.35,30.92z"/>
   <path class="fil7" d="M17560.29 13470.89c-25.42,68.79 -130.11,93.46 -233.8,55.12 -103.71,-38.34 -167.16,-125.18 -141.73,-193.97 25.44,-68.77 130.11,-93.45 233.82,-55.11 103.69,38.35 167.14,125.19 141.71,193.96z"/>
   <path class="fil8" d="M18543.34 13186.95c-2.25,43.02 -8.08,86.47 -16.59,130.84 -76.17,398.33 -475.41,644.31 -859.84,609.82 -284.96,-25.54 -370.11,-387.59 -293.93,-785.91 4.94,-26.88 11.2,-52.88 18.37,-77.97 46.15,-166.68 132.19,-302.45 238.82,-396.09 119.18,-105.3 263.91,-158.16 409.08,-145.62 293.04,25.54 451.65,210.58 494.67,455.69 11.65,65.86 14.79,136.2 9.42,209.24z"/>
   <path class="fil7" d="M18585.44 13081.65l-42.1 105.3 -96.79 242.85c0,0 -120.09,-154.13 -183.71,-332.92 0,0 -193.56,46.62 -246.89,-65.85 0,0 -188.19,65.85 -254.49,-43.01 0,0 -199.4,133.06 -265.71,0 0,0 -22.41,89.16 -104.4,75.71 46.15,-166.68 132.19,-302.45 238.82,-396.09 208.34,13 775.15,49.29 775.15,49.29l128.6 260.78 51.52 103.94z"/>
   <path class="fil23" d="M18432.71 13471.92c0,0 -107.57,-272.87 -117.91,-472.02 0,0 -150.3,86.45 -261.31,-71.63 0,0 -212.15,114.91 -288.61,-24.52 0,0 -212.77,148.16 -278.72,-13.17 0,0 -21.74,100.14 -72.43,96.78 -50.69,-3.38 -95.25,-287 253.57,-432.86 348.8,-145.86 603.14,-10.19 740.07,88.66 136.93,98.84 202.94,344.69 187.98,472.58 -8.26,70.65 -7.38,259.25 -49.38,335.76 -34.03,62 -113.26,20.42 -113.26,20.42z"/>
   <path class="fil8" d="M18692.05 13506.62c5.27,73.13 -79.87,138.85 -190.15,146.79 -110.27,7.93 -203.93,-44.93 -209.2,-118.07 -5.25,-73.15 79.88,-138.87 190.15,-146.8 110.28,-7.94 203.94,44.92 209.2,118.08z"/>
   <path class="fil11" d="M17893.54 13394.45c-6.82,28.54 -24.88,48.67 -40.33,44.97 -15.45,-3.69 -22.43,-29.83 -15.62,-58.36 6.84,-28.56 24.9,-48.69 40.35,-44.99 15.45,3.7 22.43,29.83 15.6,58.38z"/>
   <path class="fil11" d="M17524.46 13350.81c-1.49,29.3 -15.54,52.41 -31.41,51.62 -15.87,-0.82 -27.52,-25.22 -26.05,-54.52 1.49,-29.32 15.55,-52.43 31.4,-51.63 15.87,0.81 27.53,25.21 26.06,54.53z"/>
   <path class="fil13 str1" d="M17622.98 13349.35c-19.49,50.84 -20.87,105.82 -2.13,151.53"/>
   <path class="fil13 str2" d="M17886.26 13170.42c45.05,-6.95 129.87,16.47 153.91,55.2"/>
   <path class="fil13 str2" d="M17426.76 13188.11c27.01,-31.27 83.61,-49.83 137.94,-28.98"/>
   <path class="fil13 str1" d="M17636.42 13654.2c0,0 190.63,60.95 305.44,-97.88"/>
   <path class="fil24" d="M18240.88 16888.42c-487.05,871.93 -2285.13,939.16 -2285.13,939.16 111.13,-20.17 219.99,-97.24 321.71,-203.43 281.83,-294.38 508.55,-812.79 577.11,-977.24 154.13,-371.45 471.37,-321.27 934.67,-371.45 353.96,-38.52 631.77,-390.24 743.33,-554.25 34.5,-50.62 52.87,-83.35 52.87,-83.35 0,0 142.48,378.62 -344.56,1250.56z"/>
   <path class="fil37" d="M18532.57 15721.21c-48.38,181.47 -274.23,541.23 -633.14,624.57 -508.54,117.84 -793.09,79.05 -890.78,226.47 -85.57,129.48 -339.59,837.73 -731.19,1051.9 281.83,-294.38 508.55,-812.79 577.11,-977.24 154.13,-371.45 471.37,-321.27 934.67,-371.45 353.96,-38.52 631.77,-390.24 743.33,-554.25z"/>
   <path class="fil32" d="M19538.6 10489.7c3.21,625.29 -500.98,1135.43 -1126.26,1138.64 -625.75,3.67 -1135.41,-500.5 -1139.08,-1126.25 -3.22,-625.28 500.96,-1134.96 1126.24,-1138.63 135.79,-0.92 265.62,22.47 386.28,65.6l-379.85 1067.07 1125.32 -128.46c4.58,39.92 6.89,80.75 7.35,122.03z"/>
   <path class="fil38" d="M19731.87 10167.07l-1125.32 128.44 379.85 -1067.07c399.57,141.76 696.39,502.79 745.47,938.63z"/>
   <path class="fil0" d="M8129.02 17249.44c366.72,-242.54 706.31,-534.47 1136.18,-656.01 1276.55,-360.89 2288.45,876.89 2977.63,1751.65 414.89,526.62 926.76,1230.43 735.49,1942.96 -477.64,1779.19 -3324.51,1586.47 -4679.63,1273.01 -986.64,-228.22 -2373.06,-720.69 -2779.17,-1751.93 -239.84,-609.03 83.12,-1257.68 556.43,-1650.58 498.44,-413.76 1124.14,-432.33 1682.46,-695.63 129.12,-60.89 251.28,-134.55 370.61,-213.47z"/>
   <path class="fil38" d="M9992.66 18677.98c-23.96,-30.74 -486.02,-1140.79 -486.02,-1140.79 0,0 -215.85,11.52 -357.7,393.89 -141.85,382.36 -677.57,2054.18 -677.57,2054.18l518.53 323.15 322 -133.21 680.76 -1497.22z"/>
   <path class="fil39" d="M12475.22 20359.67l-2650.28 0c0,0 -378.29,-766.18 -434.83,-1442.77 -39.13,-466.13 0,-1315.79 116.53,-1379.71 50.45,-27.83 206.99,-77.4 368.31,-128.71 4.78,273.51 270.02,707.9 629.2,817.04 325.24,98.71 922.26,-431.79 1183.6,-681.37 240.89,156.96 478.31,316.98 524.83,396.55 73.93,127.42 262.64,2418.97 262.64,2418.97z"/>
   <path class="fil8" d="M11687.75 17544.15c-261.34,249.58 -858.36,780.08 -1183.6,681.37 -359.18,-109.14 -624.42,-543.53 -629.2,-817.04 168.71,-54.78 342.64,-111.31 406.57,-146.98l0.43 0c15.21,-8.25 23.91,-15.64 24.78,-21.74 7.82,-53.47 -87.83,-516.13 -87.83,-516.13l781.38 -181.76c0,0 2.62,155.22 48.28,330.02 39.56,151.77 111.3,318.31 242.18,409.62 105.68,73.92 251.77,167.85 397.01,262.64z"/>
   <path class="fil7" d="M10306.73 17239.76c7.82,-53.47 -87.83,-516.13 -87.83,-516.13l781.38 -181.76c0,0 2.62,155.22 48.28,330.02 -591.33,611.98 -742.7,373.97 -741.83,367.87z"/>
   <path class="fil7" d="M9614.87 16269.11c-44.96,121.37 -234.5,163.02 -423.35,93.08 -188.86,-69.96 -305.52,-225.07 -260.56,-346.42 44.95,-121.36 234.5,-163.04 423.36,-93.08 188.85,69.97 305.51,225.06 260.55,346.42z"/>
   <path class="fil9" d="M9724.31 14924.92l-435.9 89.67c0,0 -254.29,623.96 -76.15,1041.75 131.73,308.91 512.05,-1131.42 512.05,-1131.42z"/>
   <path class="fil8" d="M11516.86 15915.27c-21.32,110.02 -54.36,215.69 -97.41,315.26 -256.98,599.2 -974.93,985.95 -1508.46,882.47 -622.67,-120.89 -798.3,-862.91 -648.28,-1635.6 24.78,-126.09 61.74,-246.11 110,-357.42 244.81,-570.49 768.35,-924.01 1288.84,-822.71 622.25,120.89 1005.33,845.31 855.31,1618z"/>
   <path class="fil40" d="M11182.54 14720.73c0,0 175.97,-237.62 366.84,-207.92 190.9,29.7 362.51,257.42 362.51,257.42 0,0 -297.02,-151.08 -458.73,-129.99 0,0 273.91,93.68 323.42,354.4 0,0 -260.72,-257.42 -594.04,-273.91z"/>
   <path class="fil40" d="M11494 14513.39c-175.86,288.35 -481.66,422.55 -683.02,299.73 -201.35,-122.8 -222.01,-456.1 -46.15,-744.46 175.87,-288.34 394.02,-474.12 683.02,-299.73 308.67,186.24 222.02,456.1 46.15,744.46z"/>
   <path class="fil9" d="M11596.43 15917.44c-29.57,108.28 -72.61,232.21 -115.67,331.79 -119.13,87.39 -346.98,107.84 -346.98,107.84 0,-21.74 -182.63,-1012.29 -187.42,-1038.38 0,32.62 -867.48,-255.68 -1573.65,-198.71 -7.39,-5.22 -14.35,-10.44 -21.3,-15.22 -43.05,-33.49 -75.65,-70 -97.83,-108.72 0,0 0,0 0,-0.43 -213.07,-366.56 488.74,-904.45 1267.09,-796.17 13.91,1.74 27.38,3.91 41.31,6.53 27.82,4.77 55.65,9.99 83.48,16.52 313.95,71.75 550.48,206.54 715.74,384.39 308.73,330.91 371.77,810.52 235.23,1310.56z"/>
   <path class="fil36" d="M11361.2 14606.88c-530.93,-229.16 -1674.97,-560.5 -2107.62,388.73 -213.07,-366.56 488.74,-904.45 1267.09,-796.17 13.91,1.74 27.38,3.91 41.31,6.53 27.82,4.77 55.65,9.99 83.48,16.52 313.95,71.75 550.48,206.54 715.74,384.39z"/>
   <path class="fil11" d="M10380.82 16118.97c0,56.71 -20.76,102.68 -46.38,102.68 -25.62,0 -46.38,-45.97 -46.38,-102.68 0,-56.71 20.76,-102.68 46.38,-102.68 25.62,0 46.38,45.97 46.38,102.68z"/>
   <path class="fil11" d="M9529.4 16039.76c0,56.71 -20.78,102.68 -46.39,102.68 -25.63,0 -46.39,-45.97 -46.39,-102.68 0,-56.71 20.76,-102.68 46.39,-102.68 25.61,0 46.39,45.97 46.39,102.68z"/>
   <path class="fil13 str1" d="M9783.28 16053.65c-37.32,98.12 -45.41,207.16 -22.97,309.73"/>
   <path class="fil13 str3" d="M10324.77 15570.91c96.55,-15.31 199.15,12.42 274.85,74.29"/>
   <path class="fil13 str3" d="M9402.06 15372.95c92.95,-19.65 194.33,5.21 267.63,65.65"/>
   <path class="fil13 str1" d="M9930.92 16644.03c151.61,26.01 313.36,-13.8 435.58,-107.22"/>
   <path class="fil8" d="M11771.72 16288.3c24.45,127.09 -116.06,260.97 -313.82,299.03 -197.78,38.06 -377.93,-34.13 -402.38,-161.22 -24.46,-127.09 116.05,-260.96 313.81,-299.02 197.78,-38.04 377.94,34.12 402.39,161.21z"/>
   <path class="fil41" d="M11828.44 17787.44c159.1,-4.24 311.28,65.69 419.82,182.07 118.15,126.64 315.38,363.18 614.42,793.08 553.54,795.73 752.48,1202.23 579.5,1427.11 -172.98,224.89 -2198.45,169.97 -2198.45,169.97l-182.71 -542.89 1018.15 -205.55c0,0 -543.23,-821.85 -611.23,-1160.46 -56.77,-282.72 -6.32,-653.53 360.5,-663.33z"/>
   <path class="fil8" d="M11257.7 20354.44c0,0 -151.75,68.72 -458.74,33.92 -307.42,-35.22 -380.05,-241.33 -380.05,-241.33 0,0 -216.98,53.91 -278.28,-24.35 -28.71,-36.53 -20.88,-73.49 -12.61,-93.92 4.35,-10.44 9.13,-16.97 9.13,-16.97 0,0 -14.79,9.58 -38.27,12.63 -25.66,3.46 -61.31,-0.88 -99.13,-33.05 -69.14,-59.15 -6.96,-156.55 -1.74,-164.81l-0.44 0c-3.48,1.31 -20.01,7.83 -41.31,7.83 -30.01,0 -69.14,-12.62 -96.1,-67.39 -49.13,-100.02 210.46,-236.56 231.33,-247.43 -25.66,7.39 -437.87,129.14 -480.05,134.81 -43.05,5.21 -128.71,3.47 -74.35,-96.97 53.91,-100.02 494.83,-333.09 851.82,-255.69 356.57,77.84 672.24,514.83 672.24,514.83l196.55 537.89z"/>
   <path class="fil7" d="M9997.57 19826.56l0.44 0c126.96,-141.75 274.81,-230.9 461.79,-296.12 17.39,-6.08 10.42,-30.87 -7.41,-27.39 -194.8,38.7 -380.46,168.72 -496.13,331.34l41.31 -7.83z"/>
   <path class="fil7" d="M10546.76 19723.06c-171.33,73.5 -311.78,160.9 -418.74,305.7 4.35,-10.44 9.13,-16.97 9.13,-16.97 0,0 -14.79,9.58 -38.27,12.63 97.4,-156.55 256.56,-290.9 437.87,-325.26 13.48,-2.62 24.36,17.39 10.01,23.9z"/>
   <polygon class="fil42" points="13536.02,20646.82 4728.1,20646.82 4728.1,20308.41 13536.02,20308.41 "/>
   <polygon class="fil43" points="10593.46,20308.41 5264.08,20308.41 5264.08,20041.97 10593.46,20041.97 "/>
   <polygon class="fil44" points="10593.46,20308.41 8899.59,20308.41 8899.59,20041.97 10593.46,20041.97 "/>
   <polygon class="fil43" points="9679.97,20229.33 9257.28,20229.33 9257.28,20121.05 9679.97,20121.05 "/>
   <polygon class="fil43" points="10415.34,20229.33 9992.66,20229.33 9992.66,20121.05 10415.34,20121.05 "/>
   <path class="fil43" d="M9184.44 20175.2c0,26.6 -22.85,48.17 -51.03,48.17 -28.19,0 -51.02,-21.57 -51.02,-48.17 0,-26.61 22.83,-48.18 51.02,-48.18 28.18,0 51.03,21.57 51.03,48.18z"/>
   <polygon class="fil2" points="8899.59,20010.29 8754.2,20122.18 4878.5,20122.18 4342.73,17870.29 4483.28,17719.97 8454.79,17719.97 "/>
   <polygon class="fil44" points="8754.2,20122.18 4878.5,20122.18 4342.73,17870.29 8292.86,17870.29 "/>
   <path class="fil2" d="M7250.88 18963.64c0,125.11 -273.6,226.54 -611.11,226.54 -337.51,0 -611.11,-101.43 -611.11,-226.54 0,-125.11 273.6,-226.51 611.11,-226.51 337.51,0 611.11,101.4 611.11,226.51z"/>
   <path class="fil45" d="M12772.72 16342.58c-32.32,95.31 -196.02,125.96 -365.65,68.46 -169.62,-57.51 -280.95,-181.38 -248.64,-276.69 32.31,-95.31 196.02,-125.96 365.64,-68.46 169.63,57.51 280.95,181.39 248.65,276.69z"/>
   <polygon class="fil46" points="13280.36,15364.52 13129.12,15692.14 13107.61,15738.6 13066.52,15827.48 13045.03,15873.96 13003.93,15962.84 12982.46,16009.3 12941.36,16098.18 12920.33,16144.82 12879.24,16233.7 12857.75,16280.16 12820.94,16359.54 12110.82,16118.82 12127.98,16032.78 12138.24,15982.5 12157.33,15886.17 12167.59,15835.88 12186.67,15739.55 12196.93,15689.27 12216.03,15592.92 12226.29,15542.65 12245.83,15446.47 12255.64,15396.03 12326.83,15041.27 "/>
   <polygon class="fil45" points="13129.12,15692.14 13107.61,15738.6 12245.83,15446.47 12255.64,15396.03 "/>
   <polygon class="fil45" points="12226.29,15542.65 13066.52,15827.48 13045.03,15873.96 12216.03,15592.92 "/>
   <polygon class="fil45" points="13003.93,15962.84 12982.46,16009.3 12186.67,15739.55 12196.93,15689.27 "/>
   <polygon class="fil45" points="12941.36,16098.18 12920.33,16144.82 12157.33,15886.17 12167.59,15835.88 "/>
   <polygon class="fil45" points="12879.24,16233.7 12857.75,16280.16 12127.98,16032.78 12138.24,15982.5 "/>
   <path class="fil32" d="M13747.44 15047.4c-131.22,387.12 -503.83,534.81 -890.6,457.98 -16.24,-2.9 -32.79,-6.43 -49.18,-10.41 -31.22,-7.98 -62.59,-17.05 -93.96,-27.68 -45.4,-15.4 -89.38,-33.44 -130.55,-53.65 -15.75,-7.42 -30.71,-15.63 -45.67,-23.84 -323.12,-178.41 -490.88,-504.07 -364.73,-876.22 147.4,-434.85 619.38,-667.85 1054.25,-520.43 434.86,147.42 667.85,619.38 520.44,1054.25z"/>
   <path class="fil47" d="M13394.72 14942.44c-45.07,136.07 -232.56,275.01 -440.09,326.79l-97.79 236.15c-16.24,-2.9 -32.79,-6.43 -49.18,-10.41l111.24 -268.13 12.53 -3.06c193.09,-44.65 376.16,-175.18 416.33,-296.73 17.15,-52.13 7.71,-99.68 -27.72,-141.44 -25.18,-28.9 -55.58,-43.89 -94.03,-45.98 -140.16,-6.79 -320.94,163.13 -322.5,164.68l-36.91 34.98 -4.75 -50.66c-0.3,-2.2 -22.59,-230.51 -130.42,-295.78 -35.51,-21.43 -76,-22.1 -124.56,-2.02 -41.2,16.82 -67.43,44.98 -80.92,84.76 -51.28,155.88 112.54,430.09 114.24,432.77l4.96 8.46 -62 296.82c-15.75,-7.42 -30.71,-15.63 -45.67,-23.84l55.26 -264.65c-28.97,-50.01 -167.26,-302.51 -113.76,-464.95 17.77,-53.99 54.39,-92.73 108.9,-114.95 63.13,-26.11 120.01,-24.56 169.25,5.69 96.3,57.71 134.14,209.35 147.5,286.94 63.88,-52.96 201.94,-153.86 323.97,-147.46 51.73,2.93 95.23,23.93 128.8,63.49 46.76,54.48 59.57,119.88 37.32,188.53z"/>
   <path class="fil48" d="M12403.16 14291.77c39.29,-61.08 93.19,-111.28 154.94,-149.55 124.13,-76.94 369.88,-192.05 663.05,-76.62 329.61,129.76 -90.69,13.93 -407.17,95.64 -284.65,73.49 -536.2,325.36 -410.82,130.53z"/>
   <path class="fil0" d="M13655.6 5390.91c-436.03,10.44 -870.12,106.95 -1269.05,283.44 -594.55,263.03 -930.4,863.89 -1305.07,1365.82 -316.85,424.49 -692.39,840.2 -1193.71,1011.28 -475.41,162.23 -1006.46,83.66 -1483.65,240.63 -883.27,290.55 -1338.13,1369.68 -1132,2276.39 206.13,906.71 931.91,1622.73 1754.01,2057.21 1710.51,904.03 3891.72,725.8 5539.5,-288.1 912.74,-561.63 1689.36,-1380.04 2079.87,-2378.05 751.68,-1920.94 -228.22,-4154.76 -2359.69,-4522.67 -208.01,-35.9 -419.34,-50.99 -630.21,-45.95z"/>
   <polygon class="fil49" points="16596.36,12528.03 7778.7,12528.03 7778.7,6898.67 16596.36,6898.67 "/>
   <polygon class="fil50" points="16596.36,7375.73 7778.7,7375.73 7778.7,6898.67 16596.36,6898.67 "/>
   <path class="fil49" d="M15230.38 7137.2c0,58.11 -47.12,105.23 -105.24,105.23 -58.11,0 -105.21,-47.12 -105.21,-105.23 0,-58.12 47.1,-105.22 105.21,-105.22 58.12,0 105.24,47.1 105.24,105.22z"/>
   <path class="fil49" d="M15743.35 7137.2c0,58.11 -47.12,105.23 -105.23,105.23 -58.12,0 -105.22,-47.12 -105.22,-105.23 0,-58.12 47.1,-105.22 105.22,-105.22 58.11,0 105.23,47.1 105.23,105.22z"/>
   <path class="fil49" d="M16253.95 7137.2c0,58.11 -47.12,105.23 -105.23,105.23 -58.12,0 -105.22,-47.12 -105.22,-105.23 0,-58.12 47.1,-105.22 105.22,-105.22 58.11,0 105.23,47.1 105.23,105.22z"/>
   <polygon class="fil51" points="16012.37,12520.2 15646.85,12520.2 15646.85,8206.93 16012.37,8206.93 "/>
   <polygon class="fil51" points="14915.7,12520.2 14550.2,12520.2 14550.2,9418.92 14915.7,9418.92 "/>
   <polygon class="fil51" points="11085.5,12520.2 10720,12520.2 10720,8841.09 11085.5,8841.09 "/>
   <polygon class="fil51" points="8640.12,12544.8 8274.61,12544.8 8274.61,8865.69 8640.12,8865.69 "/>
   <polygon class="fil51" points="9901.52,12520.2 9536.02,12520.2 9536.02,7807.06 9901.52,7807.06 "/>
   <path class="fil52" d="M14341.26 9426.07c-22.21,138.41 -240.93,178.57 -415.22,377.63 -174.73,198.64 219.99,240.51 244.34,396 24.36,155.08 -4.68,368.67 -271.68,465.62 -266.57,96.99 -2569.97,451.56 -2806.64,68.79 -236.64,-382.75 54.69,-652.31 158.07,-737.75 103.38,-85.88 -394.71,-137.13 -393.02,-416.93 1.71,-226.43 471.62,-264.43 402.42,-390.89 -68.77,-126.43 -431.46,-92.26 -402.42,-270.4 28.63,-178.13 597.22,-261.01 607.04,-372.51 4.7,-56.81 -32.04,-252.03 -51.27,-491.69 0,-0.42 0,-0.42 0,-0.85 -18.37,-230.26 40.11,-582.9 108.04,-808.89 0,-0.43 250.38,-235.59 513.94,-301.8 343.05,-86.29 709.57,-89.28 709.57,-89.28l792.43 522.45 83.3 -230.68c0.43,1.27 0.86,2.56 0.86,3.84 0.87,1.71 1.71,3.41 1.28,5.12 5.13,23.93 19.22,90.14 34.61,178.57 38.45,227.69 85,605.33 7.26,795.42 -116.2,283.22 325.52,333.21 448.12,434.02 123.03,100.82 17.52,276.4 -197.36,412.24 -214.87,136.27 473.32,162.76 426.33,451.97z"/>
   <polygon class="fil46" points="13707.35,10564.07 13145.43,9880.05 11743.07,9778.95 11248.97,12528.03 13505.25,12528.03 "/>
   <path class="fil8" d="M13230.36 9944.24c0,0 -866.78,1078.66 -1022.69,1078.66 -155.93,0 -464.79,-1243.98 -464.79,-1243.98 0,0 166.17,-12.39 274.26,-140.54 37.16,-44 63.22,-116.63 81.59,-201.64 57.68,-268.26 36.73,-660.43 36.73,-660.43l886.43 -155.5c-16.25,0 -143.97,378.49 -127.3,736.91 11.09,251.19 93.55,492.96 335.77,586.52z"/>
   <path class="fil7" d="M12894.59 9357.72c-239.23,67.92 -553.21,129.85 -795.86,79.02 57.68,-268.26 36.73,-660.43 36.73,-660.43l886.43 -155.5c-16.25,0 -143.97,378.49 -127.3,736.91z"/>
   <path class="fil7" d="M13885.24 8166.87c19.13,101.46 -96.75,208.51 -258.83,239.08 -162.09,30.56 -309,-26.92 -328.14,-128.4 -19.13,-101.48 96.75,-208.52 258.83,-239.1 162.08,-30.56 309,26.94 328.14,128.42z"/>
   <path class="fil7" d="M11839.58 8272.89c-17.19,101.82 -162.97,162.1 -325.61,134.62 -162.65,-27.47 -280.54,-132.28 -263.34,-234.1 17.2,-101.83 162.98,-162.11 325.63,-134.64 162.63,27.48 280.53,132.29 263.32,234.12z"/>
   <path class="fil8" d="M13577.79 8043.67c-39.15,636.93 -483.24,1190.05 -1068.35,1190.05 -556.33,0 -927.13,-673.38 -887.98,-1310.31 39.16,-636.93 508.83,-1126.35 1049.07,-1093.14 540.23,33.21 946.42,576.47 907.26,1213.4z"/>
   <path class="fil7" d="M13538.98 7982.74l-242.78 -252.62c0,0 -682.11,66.87 -1005.27,-401.15 0,0 -83.36,317.41 -548.05,551.59l-120.54 172.72c0,0 -189.41,-973.05 476.39,-1116.12 665.8,-143.06 1395.37,128.15 1493.02,558.06 97.66,429.92 -52.77,487.52 -52.77,487.52z"/>
   <path class="fil52" d="M13564.83 8177.4l-148.65 -519.88c0,0 -801.84,12.8 -1122.66,-564.76 0,0 -295.18,603.19 -590.36,744.6l-85.43 384.89c-18.8,-7.26 -86.73,-182.83 -117.92,-417.79 -19.21,-145.25 -24.77,-313.55 3.84,-478.88 0,-0.43 0,-1.28 0.43,-1.71 53.41,-305.43 224.7,-599.77 642.06,-717.24 475.47,-134.14 970.16,-101.24 1271.75,156.34 112.35,94.85 197.78,221.3 245.64,381.92 0.42,1.27 0.85,2.56 0.85,3.84 0.85,1.71 1.69,3.41 1.28,5.12 16.65,55.55 28.2,114.92 34.61,178.57 23.91,227.26 -14.54,507.06 -135.44,844.98z"/>
   <path class="fil36" d="M13417.89 6762.97c-335.77,-57.66 -899.23,-93.96 -1339.67,179.43 -259.29,160.61 -475.89,428.46 -578.41,862.06 -18.36,77.75 -32.9,160.19 -43.57,248.63 -18.37,-230.26 -20.5,-501.51 47.41,-727.51 0,-0.43 0,-1.28 0.43,-1.71 53.41,-305.43 224.7,-599.77 642.06,-717.24 475.47,-134.14 970.16,-101.24 1271.75,156.34z"/>
   <path class="fil11" d="M13021.89 8190.45c0,54.65 -22.15,98.92 -49.46,98.92 -27.32,0 -49.46,-44.27 -49.46,-98.92 0,-54.61 22.14,-98.9 49.46,-98.9 27.31,0 49.46,44.29 49.46,98.9z"/>
   <path class="fil11" d="M12168.79 8129.16c0,54.63 -22.14,98.91 -49.45,98.91 -27.3,0 -49.45,-44.28 -49.45,-98.91 0,-54.62 22.15,-98.9 49.45,-98.9 27.31,0 49.45,44.28 49.45,98.9z"/>
   <path class="fil12" d="M12856.19 8580.57c-13.51,5.41 -490.23,68.15 -490.23,68.15 0,0 63.67,253.03 262.35,230.38 198.67,-22.65 227.88,-298.53 227.88,-298.53z"/>
   <path class="fil13 str1" d="M12485.2 8126.6c-6.43,108.46 -4.27,217.42 6.45,325.54"/>
   <path class="fil13 str4" d="M12917.43 7779.37c69.65,-28.87 156.03,-11.32 208.91,42.45"/>
   <path class="fil13 str4" d="M11915.21 7795.22c65.92,-62.95 173.11,-77.72 253.58,-34.9"/>
   <path class="fil53" d="M11841.13 9734.98c0,0 -292.19,1689.9 -390.44,2792.89l-8.58 0.16 -1711.66 0c109.35,-280.9 893,-2278 1154.64,-2492.79 26.92,-22.22 57.68,-42.3 90.99,-61.52 313.55,-177.28 865.05,-238.74 865.05,-238.74z"/>
   <path class="fil54" d="M10885.09 10035.24c26.92,-22.22 57.68,-42.3 90.99,-61.52 -78.6,197.35 -164.89,475.46 -196.93,730.07 -42.66,342.12 -148.39,1337.75 -199.89,1824.24l-848.81 0c109.35,-280.9 893,-2278 1154.64,-2492.79z"/>
   <path class="fil55" d="M9269.85 9953.76c0,0 -401.38,-708.3 -854.43,-874.8l106.61 462.59 747.82 412.21z"/>
   <path class="fil56" d="M9269.85 9953.76c0,0 -437.35,-688.03 -960.75,-737.48l-226.68 271.81 993.24 787.36 138.23 -89.21 55.96 -232.48z"/>
   <polygon class="fil56" points="10510.2,9233.72 10653.7,9690.59 10581.95,9856.66 10536.48,9589.66 "/>
   <path class="fil57" d="M9213.89 10186.24l55.96 -232.48c0,0 504.42,-622.6 1240.35,-720.04l40.35 398.76 -1336.66 553.76z"/>
   <path class="fil4" d="M9213.89 10186.24c0,0 -561.08,-743.02 -1210.03,-730.03l707.36 1914.37c0,0 431.75,26.21 991.36,580.93l-488.69 -1765.27z"/>
   <path class="fil58" d="M9702.58 11951.51c-38.86,37.07 -488.69,-1765.27 -488.69,-1765.27 0,0 472.4,-520.27 1439.81,-669.87l388.97 1944.79c0,0 -911.23,81.44 -1340.09,490.35z"/>
   <path class="fil59" d="M9574.81 10275.45c248.98,-233.45 527.39,-380.57 850.83,-395.4l114.04 516.4c-313.37,37.42 -570.73,210.44 -802.82,403.37l-162.05 -524.37z"/>
   <path class="fil60" d="M9384.09 12528.03c-2.91,-201.68 59.29,-610.89 632.68,-494.06l34.16 277.35 -442.44 216.71 -224.4 0z"/>
   <path class="fil8" d="M9678.28 12528.03l-155.91 -249.21 -39.3 -62.36c-141.41,-177.29 -776.21,-1038.93 -710.43,-1193.56 65.37,-154.65 441.29,434.02 441.29,434.02 0,0 -233.25,-648.91 -138.4,-703.15 94.82,-54.68 416.49,757.82 416.49,757.82 0,0 -70.89,-643.34 0,-665.13 70.93,-21.79 114.5,119.61 114.5,119.61 0,0 33.74,-67.49 96.12,-58.09 61.94,8.96 179.42,647.19 179.42,647.19 0,0 117.47,134.14 132.42,401.13 1.71,24.78 2.14,50.84 1.71,77.74l0.43 0c0,0 122.16,325.52 137.13,340.04 8.16,8.4 -123.79,86.86 -240.9,153.95l-234.57 0z"/>
   <path class="fil7" d="M9678.28 12528.03l-155.91 -249.21c211.46,-5.13 393.01,-195.65 492.11,-322.52 1.71,24.78 2.14,50.84 1.71,77.74l0.43 0c0,0 122.16,325.52 137.13,340.04 8.16,8.4 -123.79,86.86 -240.9,153.95l-234.57 0z"/>
   <path class="fil7" d="M9616.76 10950.26c10.27,200.37 31.19,397.3 81.18,593.8 4.27,17.09 -22.21,24.34 -26.49,7.27 -51.68,-200.37 -84.58,-410.1 -77.31,-617.3l22.62 16.23z"/>
   <path class="fil53" d="M10016.77 12015.99c0,0 -131.76,279.19 -455.77,512.04l932.64 0 -476.87 -512.04z"/>
   <path class="fil53" d="M14963.31 12528.03l-961.47 0 -1081.12 0c2.47,-291.24 25.83,-2124.18 224.61,-2647.87 0,0 548.09,263.59 863.35,502.8 96.97,73.06 171.73,144.39 202.07,205.06 129,257.16 752.56,1940.01 752.56,1940.01z"/>
   <path class="fil54" d="M14963.31 12528.03l-1109.94 0c-82.01,-644.17 -69.82,-1877.22 34,-2056.63 34.17,-59.82 76.46,-85.02 121.31,-88.44 96.97,73.06 171.73,144.39 202.07,205.06 129,257.16 752.56,1940.01 752.56,1940.01z"/>
   <path class="fil60" d="M15485.93 12528.03c9.26,-132.34 0.13,-342.36 -134.48,-428.9 -203.55,-130.85 -287.15,239.88 -287.15,239.88l130.46 189.02 291.17 0z"/>
   <path class="fil61" d="M15160.17 11780.01c6.47,-11.09 77.81,-426.12 287.55,-575.99 209.74,-149.87 474.95,-518.87 528.86,-503.94 53.92,14.93 -247.79,954.18 -247.79,954.18l-568.62 125.75z"/>
   <path class="fil52" d="M15338.75 11601.97c0,0 2059.32,-3189.49 2124.52,-3173.19 65.21,16.3 -1991.63,3249.27 -1991.63,3249.27l-132.89 -76.08z"/>
   <path class="fil8" d="M16386.84 11466.73c-35.46,199.94 -956.04,830.03 -956.04,830.03l-17.52 19.66 -189.16 211.61 -71.28 0 -245.78 -457.25 153.36 -190.95 -5.98 -6.83c11.11,-41.45 26.06,-77.76 44.85,-109.79 146.53,-254.61 494.69,-239.66 494.69,-239.66 0,0 -117.05,-464.35 -55.12,-533.98 41.02,-46.57 106.39,13.67 112.37,19.23 -5.57,-7.69 -73.06,-106.37 14.08,-155.51 81.59,-45.71 292.64,477.61 306.74,511.77 -8.12,-35.45 -139.27,-624.12 -49.57,-757.4 93.13,-137.54 235.82,594.65 235.82,594.65 0,0 35.87,-778.76 128.58,-821.49 93.12,-43.13 135.84,885.58 99.96,1085.91z"/>
   <path class="fil61" d="M15413.28 12316.42l-189.16 211.61 -71.28 0 -245.78 -457.25 153.36 -190.95 -5.98 -6.83c11.11,-41.45 26.06,-77.76 44.85,-109.79 37.32,176.12 124.82,435.7 313.99,553.21z"/>
   <path class="fil61" d="M15647.8 11005.81l0.44 0.43c115.77,164.88 172.57,356.26 227.68,551.07 5.55,18.37 -23.93,26.47 -29.04,7.69 -54.69,-202.91 -115.36,-408.4 -234.53,-583.12l35.45 23.93z"/>
   <path class="fil53" d="M14254.38 12496.28c25.21,-0.66 825.27,-691.67 825.27,-691.67 0,0 41.34,487.05 227.05,723.42l-985.63 0 -66.69 -31.75z"/>
   <polyline class="fil13 str5" points="7264.03,10335.19 6917.88,9534.6 6465.52,9798.91 6166.19,8905.9 5760.77,9510 5346.5,8422.23 "/>
   <path class="fil41" d="M5246.29 8163.83c-4.42,31.8 -99.9,568.65 -99.9,568.65l584.01 -245.91 -484.11 -322.74z"/>
  </g>
 </g>
</svg>
